<?xml version="1.0" encoding="UTF-8" standalone="no"?>
<!-- Created with Inkscape (http://www.inkscape.org/) -->

<svg
   xmlns:dc="http://purl.org/dc/elements/1.1/"
   xmlns:cc="http://creativecommons.org/ns#"
   xmlns:rdf="http://www.w3.org/1999/02/22-rdf-syntax-ns#"
   xmlns:svg="http://www.w3.org/2000/svg"
   xmlns="http://www.w3.org/2000/svg"
   xmlns:sodipodi="http://sodipodi.sourceforge.net/DTD/sodipodi-0.dtd"
   xmlns:inkscape="http://www.inkscape.org/namespaces/inkscape"
   width="1024"
   height="1024"
   viewBox="0 0 1024 1024"
   version="1.1"
   id="svg1020"
   sodipodi:docname="menamaps_logo_mark.svg"
   inkscape:export-filename="/media/data2/www/localhost/subs/menamaps/httpdocs/repo/brand/logo/png/menamaps_logo_mark_transparent_background.png"
   inkscape:export-xdpi="96"
   inkscape:export-ydpi="96"
   inkscape:version="0.92.5 (2060ec1f9f, 2020-04-08)">
  <defs
     id="defs1014" />
  <sodipodi:namedview
     id="base"
     pagecolor="#ffffff"
     bordercolor="#666666"
     borderopacity="1.0"
     inkscape:pageopacity="0.0"
     inkscape:pageshadow="2"
     inkscape:zoom="0.52246094"
     inkscape:cx="516.41468"
     inkscape:cy="523.58741"
     inkscape:document-units="px"
     inkscape:current-layer="layer1"
     showgrid="false"
     units="px"
     inkscape:window-width="1360"
     inkscape:window-height="716"
     inkscape:window-x="0"
     inkscape:window-y="24"
     inkscape:window-maximized="1" />
  <metadata
     id="metadata1017">
    <rdf:RDF>
      <cc:Work
         rdf:about="">
        <dc:format>image/svg+xml</dc:format>
        <dc:type
           rdf:resource="http://purl.org/dc/dcmitype/StillImage" />
        <dc:title></dc:title>
      </cc:Work>
    </rdf:RDF>
  </metadata>
  <g
     inkscape:label="Layer 1"
     inkscape:groupmode="layer"
     id="layer1"
     transform="translate(0,-26.06665)">
    <rect
       style="opacity:1;fill:none;fill-opacity:1;fill-rule:nonzero;stroke:none;stroke-width:1.44693089;stroke-linecap:butt;stroke-linejoin:round;stroke-miterlimit:4;stroke-dasharray:none;stroke-opacity:1"
       id="rect993"
       width="1024"
       height="1024"
       x="0"
       y="26.06665" />
    <g
       id="g989"
       transform="matrix(4.7942163,0,0,4.7942163,-561.97435,-276.73613)"
       style="fill:#000000">
      <path
         d="m 210.4,77.5 c -15.3,3.3 -29.7,12.4 -39.2,24.8 -2.3,2.9 -4.2,5.6 -4.2,5.9 0,0.6 18.7,14.8 19.4,14.8 0.6,0 35.6,-45.7 35.6,-46.5 0,-0.8 -5.1,-0.4 -11.6,1 z"
         id="path2"
         inkscape:connector-curvature="0"
         style="fill:#000000;stroke:none;stroke-width:0.1" />
      <path
         d="m 219.1,104.9 c -11.2,14.8 -20.2,27.3 -20.1,27.7 0.2,0.5 4.6,4.1 9.8,8 l 9.4,7.2 34.1,-13.9 c 22.2,-9 34.1,-14.3 33.9,-15.1 -0.1,-0.7 -1.7,-4.1 -3.4,-7.5 -6,-12.1 -19.7,-24.5 -33.6,-30.4 -3.7,-1.6 -7.4,-2.9 -8.2,-2.9 -0.8,0 -10.7,12.1 -21.9,26.9 z"
         id="path4"
         inkscape:connector-curvature="0"
         style="fill:#000000;stroke:none;stroke-width:0.1" />
      <path
         d="m 158.9,128.2 c -1.6,6.2 -1.8,26.5 -0.3,29.1 0.9,1.6 2.2,0.3 9.7,-9.7 4.8,-6.4 8.7,-11.9 8.7,-12.3 -0.1,-0.8 -14,-11.5 -15.7,-12 -0.6,-0.2 -1.7,2 -2.4,4.9 z"
         id="path6"
         inkscape:connector-curvature="0"
         style="fill:#000000;stroke:none;stroke-width:0.1" />
      <path
         d="m 256.8,138.9 c -17.5,6.9 -31.8,12.9 -31.8,13.2 0,0.8 48,37.4 48.9,37.4 1.6,-0.2 11.2,-18.5 13.7,-26.3 2.6,-7.7 2.9,-10.1 2.8,-20.7 -0.1,-18.8 3.4,-18.4 -33.6,-3.6 z"
         id="path8"
         inkscape:connector-curvature="0"
         style="fill:#000000;stroke:none;stroke-width:0.1" />
      <path
         d="m 177.5,159.5 c -8.3,10.9 -11.5,15.9 -11.1,17.1 1,2.7 10.6,18.3 11.6,18.9 0.5,0.3 11.6,-4.8 24.6,-11.3 l 23.7,-11.9 -16.8,-12.9 c -9.3,-7.1 -17.7,-13.5 -18.6,-14.1 -1.5,-1.1 -3.1,0.6 -13.4,14.2 z"
         id="path10"
         inkscape:connector-curvature="0"
         style="fill:#000000;stroke:none;stroke-width:0.1" />
      <path
         d="m 206.8,188.9 -24.7,12.7 10.9,16 c 6,8.7 11.1,15.9 11.4,15.9 0.7,0 35.6,-49.5 35.6,-50.4 0,-0.4 -1.9,-2.1 -4.3,-3.8 l -4.2,-3.1 z"
         id="path12"
         inkscape:connector-curvature="0"
         style="fill:#000000;stroke:none;stroke-width:0.1" />
      <path
         d="m 226.8,213.5 -18.7,26.5 6.1,9.7 c 3.3,5.4 6.7,10.8 7.4,12 2.1,3.3 3.1,2.9 6.2,-2.3 3.8,-6.5 29.1,-44.7 34,-51.5 l 4.1,-5.6 -9.7,-7.4 c -5.3,-4.1 -9.9,-7.5 -10.2,-7.7 -0.3,-0.1 -9,11.7 -19.2,26.3 z"
         id="path14"
         inkscape:connector-curvature="0"
         style="fill:#000000;stroke:none;stroke-width:0.1" />
    </g>
  </g>
</svg>
